{
  "accessors": [
    {
      "bufferView": 1,
      "componentType": 5126,
      "count": 13829,
      "max": [
        390.24148559570312,
        302.69338989257812,
        784.6776123046875
      ],
      "min": [
        -303.773193359375,
        -361.36489868164062,
        270.41000366210938
      ],
      "type": "VEC3"
    },
    {
      "bufferView": 1,
      "byteOffset": 165948,
      "componentType": 5126,
      "count": 13829,
      "max": [
        1,
        0.99971920251846313,
        0.99999916553497314
      ],
      "min": [
        -1,
        -0.99993109703063965,
        -0.99998772144317627
      ],
      "type": "VEC3"
    },
    {
      "bufferView": 2,
      "componentType": 5126,
      "count": 13829,
      "max": [
        1,
        0.99999982118606567,
        0.97655689716339111,
        1
      ],
      "min": [
        -1,
        -0.99999988079071045,
        -0.9908643364906311,
        -1
      ],
      "type": "VEC4"
    },
    {
      "bufferView": 0,
      "componentType": 5125,
      "count": 67392,
      "max": [
        13828
      ],
      "min": [
        0
      ],
      "type": "SCALAR"
    },
    {
      "bufferView": 1,
      "byteOffset": 331896,
      "componentType": 5126,
      "count": 3890,
      "max": [
        288.55120849609375,
        194.13630676269531,
        282.90029907226562
      ],
      "min": [
        -199.93350219726562,
        -296.80191040039062,
        1.5504000186920166
      ],
      "type": "VEC3"
    },
    {
      "bufferView": 1,
      "byteOffset": 378576,
      "componentType": 5126,
      "count": 3890,
      "max": [
        1,
        1,
        1
      ],
      "min": [
        -1,
        -1,
        -1
      ],
      "type": "VEC3"
    },
    {
      "bufferView": 2,
      "byteOffset": 221264,
      "componentType": 5126,
      "count": 3890,
      "max": [
        0,
        0,
        0,
        1
      ],
      "min": [
        0,
        0,
        0,
        1
      ],
      "type": "VEC4"
    },
    {
      "bufferView": 0,
      "byteOffset": 269568,
      "componentType": 5125,
      "count": 11760,
      "max": [
        3889
      ],
      "min": [
        0
      ],
      "type": "SCALAR"
    },
    {
      "bufferView": 1,
      "byteOffset": 425256,
      "componentType": 5126,
      "count": 2800,
      "max": [
        291.91891479492188,
        197.45660400390625,
        205.87789916992188
      ],
      "min": [
        -203.46299743652344,
        -300.29180908203125,
        0
      ],
      "type": "VEC3"
    },
    {
      "bufferView": 1,
      "byteOffset": 458856,
      "componentType": 5126,
      "count": 2800,
      "max": [
        0.99944543838500977,
        0.99944543838500977,
        0.99942862987518311
      ],
      "min": [
        -0.99944543838500977,
        -0.99944543838500977,
        -0.99942862987518311
      ],
      "type": "VEC3"
    },
    {
      "bufferView": 2,
      "byteOffset": 283504,
      "componentType": 5126,
      "count": 2800,
      "max": [
        0,
        0,
        0,
        1
      ],
      "min": [
        0,
        0,
        0,
        1
      ],
      "type": "VEC4"
    },
    {
      "bufferView": 0,
      "byteOffset": 316608,
      "componentType": 5125,
      "count": 14916,
      "max": [
        2799
      ],
      "min": [
        0
      ],
      "type": "SCALAR"
    }
  ],
  "asset": {
    "extras": {
      "author": "Zuo Modern (https://sketchfab.com/zuo)",
      "license": "CC-BY-NC-ND-4.0 (http://creativecommons.org/licenses/by-nc-nd/4.0/)",
      "source": "https://sketchfab.com/models/0786c96e58cd44f984225788f6ffc3fd",
      "title": "Pori Arm Chair Iron Gray - 500310"
    },
    "generator": "Sketchfab-3.20.7",
    "version": "2.0"
  },
  "bufferViews": [
    {
      "buffer": 0,
      "byteLength": 376272,
      "byteOffset": 0,
      "name": "floatBufferViews",
      "target": 34963
    },
    {
      "buffer": 0,
      "byteLength": 492456,
      "byteOffset": 376272,
      "byteStride": 12,
      "name": "floatBufferViews",
      "target": 34962
    },
    {
      "buffer": 0,
      "byteLength": 328304,
      "byteOffset": 868728,
      "byteStride": 16,
      "name": "floatBufferViews",
      "target": 34962
    }
  ],
  "buffers": [
    {
      "byteLength": 1197032,
      "uri": "scene.bin"
    }
  ],
  "materials": [
    {
      "doubleSided": true,
      "emissiveFactor": [
        0,
        0,
        0
      ],
      "name": "08___Default",
      "pbrMetallicRoughness": {
        "baseColorFactor": [
          0.56203767049999998,
          0.56203767049999998,
          0.56203767049999998,
          1
        ],
        "metallicFactor": 1,
        "roughnessFactor": 0.099999999999999978
      }
    },
    {
      "doubleSided": true,
      "emissiveFactor": [
        0,
        0,
        0
      ],
      "name": "09___Default",
      "pbrMetallicRoughness": {
        "baseColorFactor": [
          0,
          0,
          0,
          1
        ],
        "metallicFactor": 0,
        "roughnessFactor": 0.96799097060000006
      }
    },
    {
      "doubleSided": true,
      "emissiveFactor": [
        0,
        0,
        0
      ],
      "name": "10___Default",
      "pbrMetallicRoughness": {
        "baseColorFactor": [
          0.0214586971,
          0.010084245699999999,
          0.021927909400000001,
          1
        ],
        "metallicFactor": 0,
        "roughnessFactor": 1
      }
    }
  ],
  "meshes": [
    {
      "primitives": [
        {
          "attributes": {
            "NORMAL": 1,
            "POSITION": 0,
            "TANGENT": 2
          },
          "indices": 3,
          "material": 2,
          "mode": 4
        }
      ]
    },
    {
      "primitives": [
        {
          "attributes": {
            "NORMAL": 5,
            "POSITION": 4,
            "TANGENT": 6
          },
          "indices": 7,
          "material": 0,
          "mode": 4
        }
      ]
    },
    {
      "primitives": [
        {
          "attributes": {
            "NORMAL": 9,
            "POSITION": 8,
            "TANGENT": 10
          },
          "indices": 11,
          "material": 1,
          "mode": 4
        }
      ]
    }
  ],
  "nodes": [
    {
      "children": [
        1
      ],
      "name": "RootNode (gltf orientation matrix)",
      "rotation": [
        -0.70710678118654746,
        -0,
        -0,
        0.70710678118654757
      ]
    },
    {
      "children": [
        2
      ],
      "name": "RootNode (model correction matrix)"
    },
    {
      "children": [
        3,
        4,
        5
      ],
      "name": "500309.obj.cleaner.materialmerger.gles"
    },
    {
      "mesh": 0,
      "name": ""
    },
    {
      "mesh": 1,
      "name": ""
    },
    {
      "mesh": 2,
      "name": ""
    }
  ],
  "scene": 0,
  "scenes": [
    {
      "name": "OSG_Scene",
      "nodes": [
        0
      ]
    }
  ]
}

